<svg width="15" height="12" viewBox="0 0 15 12" fill="none" xmlns="http://www.w3.org/2000/svg">
<path d="M0.1668 6.116C0.0556 6.0048 0 5.838 0 5.7268C0 5.6156 0.0556 5.4488 0.1668 5.3376L0.9452 4.5592C1.1676 4.3368 1.5012 4.3368 1.7236 4.5592L1.7792 4.6148L4.8372 7.8952C4.9484 8.0064 5.1152 8.0064 5.2264 7.8952L12.6768 0.1668H12.7324C12.9548 -0.0556 13.2884 -0.0556 13.5108 0.1668L14.2892 0.9452C14.5116 1.1676 14.5116 1.5012 14.2892 1.7236L5.3932 10.9532C5.282 11.0644 5.1708 11.12 5.004 11.12C4.8372 11.12 4.726 11.0644 4.6148 10.9532L0.278 6.2828L0.1668 6.116Z" fill="#CCC0BA"/>
</svg>
