<svg width="12" height="12" viewBox="0 0 12 12" fill="none" xmlns="http://www.w3.org/2000/svg">
<path d="M10.8472 1.15278C10.6019 0.907407 10.2083 0.907407 9.96297 1.15278L6 5.11574L2.03704 1.15278C1.79167 0.907407 1.39815 0.907407 1.15278 1.15278C0.907407 1.39815 0.907407 1.79167 1.15278 2.03704L5.11574 6L1.15278 9.96296C0.907407 10.2083 0.907407 10.6019 1.15278 10.8472C1.27315 10.9676 1.43519 11.0324 1.59259 11.0324C1.75 11.0324 1.91204 10.9722 2.03241 10.8472L5.99537 6.88426L9.95834 10.8472C10.0787 10.9676 10.2407 11.0324 10.3982 11.0324C10.5602 11.0324 10.7176 10.9722 10.838 10.8472C11.0833 10.6019 11.0833 10.2083 10.838 9.96296L6.88426 6L10.8472 2.03704C11.0926 1.79167 11.0926 1.39815 10.8472 1.15278Z" fill="white"/>
</svg>
