<svg width="11" height="20" viewBox="0 0 11 20" fill="none" xmlns="http://www.w3.org/2000/svg">
<path d="M10.164 0.751896L7.76494 0.748047C5.0697 0.748047 3.32792 2.53505 3.32792 5.30092V7.4001H0.915799C0.707363 7.4001 0.538574 7.56908 0.538574 7.77752V10.819C0.538574 11.0274 0.707556 11.1962 0.915799 11.1962H3.32792V18.8708C3.32792 19.0793 3.49671 19.248 3.70515 19.248H6.85228C7.06072 19.248 7.22951 19.0791 7.22951 18.8708V11.1962H10.0498C10.2583 11.1962 10.4271 11.0274 10.4271 10.819L10.4282 7.77752C10.4282 7.67744 10.3884 7.58159 10.3177 7.51077C10.2471 7.43994 10.1509 7.4001 10.0508 7.4001H7.22951V5.6206C7.22951 4.7653 7.43332 4.33111 8.54748 4.33111L10.1636 4.33053C10.3718 4.33053 10.5406 4.16155 10.5406 3.9533V1.12912C10.5406 0.92107 10.372 0.752281 10.164 0.751896Z" fill="#F5F3F0"/>
</svg>
