<svg width="9" height="20" viewBox="0 0 9 20" fill="none" xmlns="http://www.w3.org/2000/svg">
<path d="M8.5722 17.8417L8.29275 18.984C7.4544 19.3149 6.78473 19.5668 6.28606 19.7399C5.78686 19.9136 5.20681 20 4.54592 20C3.53101 20 2.7416 19.7514 2.17859 19.2576C1.61557 18.7618 1.33397 18.1335 1.33397 17.3713C1.33397 17.0763 1.3544 16.7728 1.39688 16.4636C1.43972 16.154 1.50784 15.8054 1.60105 15.4157L2.64875 11.7074C2.74196 11.3523 2.82119 11.0159 2.88464 10.6977C2.94899 10.3815 2.98 10.0906 2.98 9.82873C2.98 9.35515 2.88196 9.0239 2.68675 8.83766C2.49155 8.65196 2.11907 8.55768 1.56609 8.55768C1.29525 8.55768 1.01688 8.60106 0.733126 8.68494C0.448121 8.76919 0.204522 8.85057 0 8.92621L0.280165 7.78297C0.966507 7.50352 1.62256 7.26422 2.25011 7.06561C2.87765 6.86647 3.47061 6.76681 4.03148 6.76681C5.03939 6.76681 5.81715 7.01041 6.36332 7.4976C6.90949 7.98516 7.18248 8.61719 7.18248 9.39602C7.18248 9.55717 7.16456 9.8411 7.12602 10.2469C7.08838 10.6536 7.01829 11.0263 6.91612 11.3652L5.87289 15.0587C5.78739 15.3553 5.7105 15.6945 5.64364 16.0761C5.57463 16.4552 5.54164 16.7448 5.54164 16.9392C5.54164 17.4296 5.65099 17.7644 5.87021 17.9424C6.09104 18.1204 6.4714 18.209 7.01166 18.209C7.2653 18.209 7.55389 18.164 7.87456 18.0756C8.19434 17.9872 8.42754 17.9096 8.5722 17.8417ZM8.83677 2.33561C8.83677 2.97911 8.59424 3.52868 8.10687 3.98057C7.62075 4.43407 7.03496 4.661 6.3497 4.661C5.66228 4.661 5.07506 4.43407 4.58338 3.98057C4.0926 3.52851 3.84667 2.97911 3.84667 2.33561C3.84667 1.69336 4.0926 1.14289 4.58338 0.685267C5.07416 0.228362 5.66246 0 6.3497 0C7.03478 0 7.62075 0.2289 8.10687 0.685267C8.5946 1.14289 8.83677 1.69354 8.83677 2.33561Z" fill="#2AA8C6"/>
</svg>
