<svg width="14" height="17" viewBox="0 0 14 17" fill="none" xmlns="http://www.w3.org/2000/svg">
<path fill-rule="evenodd" clip-rule="evenodd" d="M7.16974 16.5551C8.76691 15.2645 13.2143 11.2535 13.2143 6.60714C13.2143 2.95812 10.2562 0 6.60714 0C2.95812 0 0 2.95812 0 6.60714C0 11.2535 4.44736 15.2645 6.04454 16.5551C6.37688 16.8237 6.8374 16.8237 7.16974 16.5551ZM6.60694 9.43878C8.1708 9.43878 9.43857 8.17102 9.43857 6.60715C9.43857 5.04328 8.1708 3.77552 6.60694 3.77552C5.04307 3.77552 3.77531 5.04328 3.77531 6.60715C3.77531 8.17102 5.04307 9.43878 6.60694 9.43878Z" fill="#2AA8C6"/>
</svg>
