<svg width="15" height="15" viewBox="0 0 15 15" fill="none" xmlns="http://www.w3.org/2000/svg">
<path d="M14.1794 11.6222C14.1392 11.4944 13.8835 11.3061 13.4124 11.0577C13.2848 10.9794 13.103 10.873 12.8677 10.7381C12.6322 10.6031 12.4184 10.4788 12.2268 10.3651C12.0348 10.2515 11.8549 10.1414 11.6868 10.035C11.6599 10.0137 11.5758 9.95167 11.4346 9.84846C11.2931 9.74555 11.1738 9.66917 11.0761 9.61935C10.9786 9.56984 10.8826 9.54491 10.7884 9.54491C10.6539 9.54491 10.4858 9.64618 10.2841 9.84846C10.0823 10.051 9.8972 10.271 9.72907 10.5091C9.56091 10.7472 9.38258 10.9672 9.19437 11.1696C9.00589 11.3721 8.85102 11.4732 8.73006 11.4732C8.66933 11.4732 8.59361 11.4554 8.50286 11.4201C8.41216 11.3846 8.34315 11.3542 8.29579 11.3297C8.24884 11.3047 8.16828 11.2551 8.05382 11.1803C7.93914 11.1057 7.87537 11.0648 7.86194 11.0577C6.9402 10.5178 6.14967 9.89991 5.49023 9.20413C4.83099 8.50793 4.24553 7.67356 3.7342 6.7005C3.72748 6.68629 3.6887 6.61878 3.61811 6.49811C3.54741 6.37733 3.50029 6.29222 3.47674 6.24237C3.4532 6.1927 3.4246 6.11987 3.39102 6.02401C3.35744 5.92815 3.34058 5.8483 3.34058 5.78431C3.34058 5.65654 3.43648 5.49311 3.62825 5.29423C3.81999 5.09546 4.02862 4.90718 4.25394 4.72975C4.47944 4.55232 4.68786 4.35695 4.87967 4.14397C5.0714 3.93087 5.16727 3.7534 5.16727 3.61139C5.16727 3.51202 5.14373 3.41072 5.09668 3.30777C5.04959 3.2046 4.97727 3.0787 4.87967 2.92948C4.78203 2.78034 4.72317 2.69165 4.70295 2.6631C4.60214 2.48568 4.49796 2.29571 4.39018 2.09329C4.2824 1.8909 4.16475 1.6653 4.03686 1.41676C3.90907 1.16832 3.80822 0.976495 3.73412 0.841569C3.49877 0.344516 3.3205 0.0745151 3.19936 0.0320523C3.15223 0.0107463 3.08154 0 2.98743 0C2.80567 0 2.56854 0.0354478 2.27588 0.106567C1.98312 0.177575 1.75274 0.252053 1.58451 0.330299C1.24809 0.479367 0.891518 0.912577 0.514691 1.62978C0.171552 2.29724 0 2.95788 0 3.6112C0 3.80281 0.0117714 3.98923 0.0353143 4.1705C0.0588572 4.35158 0.100923 4.55579 0.161548 4.78311C0.222067 5.01035 0.270884 5.17915 0.307789 5.28908C0.34473 5.39908 0.413697 5.59613 0.514656 5.88031C0.615473 6.16442 0.676097 6.33834 0.696282 6.40225C0.931746 7.0983 1.21097 7.71968 1.53389 8.26659C2.0652 9.17562 2.79025 10.1151 3.70864 11.0845C4.62706 12.0539 5.51688 12.8192 6.37814 13.3803C6.89619 13.7211 7.48508 14.0158 8.14438 14.2646C8.20497 14.2857 8.36974 14.3496 8.63878 14.4564C8.90794 14.5629 9.09469 14.6357 9.1989 14.6747C9.30314 14.7138 9.4631 14.7654 9.6782 14.8294C9.89377 14.8934 10.0871 14.9378 10.2586 14.9628C10.4303 14.9873 10.6069 15 10.7885 15C11.4074 15 12.0333 14.8188 12.6657 14.4566C13.3451 14.059 13.7554 13.6826 13.8967 13.3272C13.971 13.1498 14.0414 12.9066 14.1086 12.5975C14.1761 12.2886 14.2096 12.0384 14.2096 11.8466C14.2099 11.7468 14.1997 11.6724 14.1794 11.6222Z" fill="#2AA8C6"/>
</svg>
